<?xml version="1.0" encoding="utf-8"?>
<!-- Generator: Adobe Illustrator 16.0.0, SVG Export Plug-In . SVG Version: 6.00 Build 0)  -->
<!DOCTYPE svg PUBLIC "-//W3C//DTD SVG 1.1//EN" "http://www.w3.org/Graphics/SVG/1.1/DTD/svg11.dtd">
<svg version="1.1" xmlns="http://www.w3.org/2000/svg" xmlns:xlink="http://www.w3.org/1999/xlink" x="0px" y="0px"
	 width="1080.107px" height="500px" viewBox="0 0 1080.107 500" enable-background="new 0 0 1080.107 500" xml:space="preserve">
<g id="cdr_x5F_layer1">
</g>
<g id="cdr_x5F_layer2">
	<g>
		<path fill-rule="evenodd" clip-rule="evenodd" fill="#18386B" d="M528.912,150.017h22.11v59.319
			c0,9.406,0.282,15.532,0.813,18.309c0.944,4.491,3.216,8.094,6.762,10.792c3.567,2.731,8.437,4.079,14.611,4.079
			c6.273,0,11.02-1.273,14.203-3.85c3.185-2.545,5.102-5.718,5.744-9.441c0.658-3.744,0.968-9.941,0.968-18.611v-60.597h22.106
			v57.526c0,13.172-0.583,22.449-1.781,27.882c-1.196,5.434-3.393,9.989-6.606,13.743c-3.209,3.724-7.526,6.706-12.88,8.925
			c-5.384,2.222-12.419,3.321-21.088,3.321c-10.459,0-18.39-1.203-23.796-3.621c-5.404-2.425-9.667-5.563-12.803-9.409
			c-3.139-3.85-5.201-7.909-6.197-12.146c-1.455-6.271-2.166-15.522-2.166-27.794V150.017z M639.491,150.017h40.42
			c9.104,0,16.044,0.687,20.832,2.089c6.43,1.89,11.943,5.256,16.506,10.103c4.59,4.82,8.084,10.734,10.479,17.722
			c2.373,7.016,3.568,15.635,3.568,25.914c0,9-1.121,16.777-3.366,23.304c-2.724,7.958-6.627,14.409-11.728,19.333
			c-3.827,3.75-9.008,6.658-15.532,8.751c-4.872,1.558-11.401,2.318-19.588,2.318h-41.592V150.017z M661.599,168.561v72.526h16.503
			c6.17,0,10.64-0.332,13.39-1.045c3.569-0.896,6.547-2.398,8.925-4.533c2.374-2.147,4.285-5.694,5.786-10.596
			c1.483-4.892,2.248-11.598,2.248-20.065c0-8.461-0.765-14.945-2.248-19.481c-1.501-4.54-3.59-8.087-6.27-10.608
			c-2.705-2.554-6.12-4.263-10.259-5.149c-3.077-0.723-9.12-1.048-18.153-1.048H661.599z M848.84,259.55h-24.077l-9.563-24.889
			h-43.784l-9.025,24.889h-23.467l42.672-109.533h23.383L848.84,259.55z M808.112,216.227l-15.097-40.656l-14.794,40.656H808.112z
			 M959.344,259.55h-24.073l-9.563-24.889h-43.788l-9.028,24.889H849.43l42.666-109.533h23.383L959.344,259.55z M918.613,216.227
			L903.52,175.57l-14.79,40.656H918.613z M971.28,259.55V150.017h21.521l44.839,73.143v-73.143h20.549V259.55h-22.213
			l-44.146-71.434v71.434H971.28z"/>
		<linearGradient id="SVGID_1_" gradientUnits="userSpaceOnUse" x1="100.4526" y1="451.2285" x2="398.4053" y2="451.2285">
			<stop  offset="0" style="stop-color:#2FAB95"/>
			<stop  offset="0.1935" style="stop-color:#53BDE5"/>
			<stop  offset="0.4086" style="stop-color:#2D3A67"/>
			<stop  offset="0.5914" style="stop-color:#883E85"/>
			<stop  offset="0.6088" style="stop-color:#894985"/>
			<stop  offset="0.6418" style="stop-color:#8A6382"/>
			<stop  offset="0.6869" style="stop-color:#8E8476"/>
			<stop  offset="0.742" style="stop-color:#95B453"/>
			<stop  offset="0.7581" style="stop-color:#98C343"/>
			<stop  offset="0.778" style="stop-color:#95C143"/>
			<stop  offset="0.7887" style="stop-color:#8DBC43"/>
			<stop  offset="0.7972" style="stop-color:#80B343"/>
			<stop  offset="0.8045" style="stop-color:#6CA844"/>
			<stop  offset="0.811" style="stop-color:#529B44"/>
			<stop  offset="0.8118" style="stop-color:#4E9944"/>
			<stop  offset="0.8198" style="stop-color:#619842"/>
			<stop  offset="0.8349" style="stop-color:#88953D"/>
			<stop  offset="0.8556" style="stop-color:#BB8D35"/>
			<stop  offset="0.8763" style="stop-color:#EF802B"/>
			<stop  offset="0.9133" style="stop-color:#EA7C2C"/>
			<stop  offset="0.938" style="stop-color:#DE7230"/>
			<stop  offset="0.959" style="stop-color:#CC6234"/>
			<stop  offset="0.9781" style="stop-color:#B54D37"/>
			<stop  offset="0.9956" style="stop-color:#993238"/>
			<stop  offset="1" style="stop-color:#922938"/>
		</linearGradient>
		<path fill-rule="evenodd" clip-rule="evenodd" fill="url(#SVGID_1_)" d="M137.269,464.295c0,0.58-0.016,1.096-0.055,1.521
			c-0.034,0.438-0.089,0.793-0.177,1.097c-0.087,0.297-0.193,0.545-0.318,0.776c-0.121,0.229-0.388,0.571-0.83,0.99
			c-0.426,0.445-1.167,0.974-2.194,1.625c-1.043,0.639-2.207,1.223-3.499,1.716c-1.309,0.516-2.707,0.922-4.226,1.226
			c-1.522,0.313-3.096,0.471-4.722,0.471c-3.358,0-6.331-0.549-8.913-1.661c-2.599-1.093-4.775-2.702-6.505-4.823
			c-1.754-2.125-3.08-4.743-3.999-7.819c-0.919-3.096-1.38-6.646-1.38-10.695c0-4.582,0.567-8.522,1.682-11.831
			c1.131-3.289,2.668-5.997,4.614-8.1c1.962-2.103,4.263-3.659,6.894-4.685c2.655-1.01,5.519-1.522,8.596-1.522
			c1.486,0,2.918,0.142,4.314,0.429c1.414,0.262,2.686,0.632,3.874,1.077c1.164,0.458,2.225,0.968,3.126,1.573
			c0.922,0.581,1.593,1.094,2.001,1.5c0.426,0.429,0.706,0.761,0.866,0.993c0.142,0.248,0.284,0.528,0.39,0.867
			c0.087,0.316,0.16,0.689,0.195,1.112c0.032,0.406,0.051,0.938,0.051,1.558c0,1.341-0.16,2.283-0.458,2.828
			c-0.319,0.528-0.695,0.793-1.151,0.793c-0.514,0-1.114-0.281-1.786-0.864c-0.671-0.567-1.519-1.199-2.563-1.896
			c-1.043-0.687-2.297-1.321-3.768-1.886c-1.467-0.584-3.202-0.867-5.196-0.867c-4.121,0-7.286,1.576-9.48,4.739
			c-2.193,3.145-3.287,7.726-3.287,13.72c0,2.989,0.284,5.624,0.85,7.888c0.582,2.244,1.412,4.137,2.526,5.655
			c1.098,1.506,2.458,2.638,4.066,3.379c1.61,0.742,3.45,1.109,5.519,1.109c1.979,0,3.711-0.313,5.199-0.932
			c1.485-0.616,2.757-1.306,3.854-2.066c1.096-0.745,2.017-1.419,2.758-2.019c0.743-0.619,1.309-0.923,1.733-0.923
			c0.229,0,0.442,0.074,0.619,0.213c0.178,0.143,0.319,0.374,0.442,0.693c0.124,0.336,0.213,0.742,0.264,1.254
			C137.253,463.005,137.269,463.602,137.269,464.295z M187.54,427.004c0,1.219-0.158,2.083-0.495,2.628
			c-0.316,0.532-0.74,0.803-1.272,0.803h-6.7c1.217,1.235,2.068,2.596,2.544,4.083c0.479,1.482,0.726,3.04,0.726,4.649
			c0,2.688-0.426,5.071-1.292,7.146c-0.867,2.069-2.105,3.82-3.713,5.252c-1.607,1.444-3.518,2.548-5.728,3.302
			c-2.212,0.765-4.671,1.135-7.36,1.135c-1.888,0-3.711-0.245-5.408-0.744c-1.715-0.51-3.042-1.132-3.979-1.89
			c-0.585,0.615-1.061,1.325-1.451,2.121c-0.371,0.813-0.563,1.732-0.563,2.758c0,1.225,0.563,2.23,1.677,3.024
			c1.114,0.813,2.618,1.237,4.472,1.309l12.148,0.513c2.301,0.071,4.422,0.394,6.351,0.958c1.927,0.58,3.606,1.38,5.021,2.438
			c1.416,1.045,2.51,2.354,3.307,3.872c0.796,1.538,1.183,3.325,1.183,5.359c0,2.138-0.438,4.173-1.343,6.098
			c-0.9,1.925-2.26,3.627-4.119,5.091c-1.838,1.471-4.208,2.635-7.073,3.47c-2.863,0.852-6.244,1.273-10.149,1.273
			c-3.766,0-6.968-0.319-9.601-0.954c-2.637-0.639-4.811-1.525-6.508-2.618c-1.682-1.116-2.918-2.425-3.677-3.96
			c-0.763-1.541-1.135-3.221-1.135-5.004c0-1.151,0.145-2.248,0.41-3.324c0.282-1.062,0.706-2.093,1.273-3.061
			c0.564-0.954,1.274-1.89,2.12-2.76c0.85-0.88,1.822-1.748,2.938-2.615c-1.682-0.867-2.92-1.964-3.732-3.272
			c-0.796-1.31-1.203-2.725-1.203-4.243c0-2.103,0.424-3.999,1.272-5.662c0.85-1.639,1.896-3.128,3.149-4.453
			c-1.061-1.273-1.909-2.709-2.528-4.312c-0.621-1.612-0.937-3.557-0.937-5.839c0-2.65,0.44-5.037,1.343-7.146
			c0.901-2.103,2.139-3.889,3.73-5.337c1.593-1.454,3.502-2.566,5.731-3.344c2.228-0.776,4.667-1.167,7.281-1.167
			c1.435,0,2.744,0.091,3.979,0.248c1.222,0.181,2.372,0.406,3.452,0.707h14.092c0.598,0,1.024,0.286,1.324,0.848
			C187.397,424.97,187.54,425.834,187.54,427.004z M174.173,439.237c0-3.163-0.866-5.64-2.62-7.406
			c-1.749-1.789-4.224-2.67-7.423-2.67c-1.664,0-3.114,0.284-4.335,0.832c-1.219,0.545-2.244,1.303-3.059,2.261
			c-0.813,0.974-1.415,2.083-1.804,3.344c-0.406,1.251-0.6,2.579-0.6,3.959c0,3.057,0.865,5.469,2.615,7.232
			c1.752,1.751,4.192,2.631,7.34,2.631c1.678,0,3.147-0.258,4.403-0.796c1.237-0.545,2.264-1.271,3.078-2.225
			c0.811-0.958,1.414-2.051,1.803-3.289C173.979,441.872,174.173,440.582,174.173,439.237z M178.416,476.142
			c0-2-0.814-3.538-2.457-4.631c-1.627-1.08-3.855-1.66-6.65-1.737l-12.042-0.403c-1.093,0.867-2.014,1.68-2.723,2.457
			c-0.708,0.776-1.256,1.506-1.68,2.212c-0.406,0.706-0.688,1.412-0.848,2.103c-0.162,0.687-0.231,1.396-0.231,2.102
			c0,2.251,1.13,3.943,3.413,5.092c2.281,1.154,5.448,1.738,9.514,1.738c2.583,0,4.756-0.249,6.489-0.748
			c1.751-0.51,3.147-1.161,4.208-1.996c1.08-0.829,1.838-1.768,2.315-2.828C178.187,478.424,178.416,477.312,178.416,476.142z
			 M221.119,468.006c0,1.01-0.069,1.806-0.209,2.393c-0.127,0.584-0.339,1.028-0.623,1.286c-0.263,0.287-0.688,0.549-1.235,0.777
			c-0.548,0.248-1.185,0.442-1.895,0.604c-0.704,0.161-1.449,0.283-2.244,0.387c-0.796,0.106-1.575,0.161-2.372,0.161
			c-2.42,0-4.488-0.319-6.206-0.954c-1.715-0.639-3.129-1.609-4.243-2.902c-1.095-1.29-1.891-2.935-2.404-4.914
			c-0.497-1.979-0.743-4.314-0.743-7.003v-27.192h-6.56c-0.514,0-0.938-0.287-1.256-0.838c-0.302-0.545-0.459-1.448-0.459-2.702
			c0-0.651,0.037-1.203,0.124-1.642c0.087-0.461,0.209-0.835,0.335-1.132c0.14-0.283,0.335-0.496,0.55-0.622
			c0.228-0.122,0.476-0.177,0.758-0.177h6.508v-11.07c0-0.245,0.053-0.474,0.177-0.67c0.123-0.213,0.354-0.388,0.688-0.549
			c0.318-0.157,0.759-0.261,1.325-0.338c0.55-0.068,1.238-0.101,2.088-0.101c0.867,0,1.572,0.032,2.12,0.101
			c0.567,0.077,0.991,0.181,1.308,0.338c0.321,0.161,0.534,0.336,0.675,0.549c0.14,0.196,0.211,0.425,0.211,0.67v11.07h11.882
			c0.282,0,0.513,0.055,0.726,0.177c0.193,0.126,0.389,0.339,0.532,0.622c0.158,0.297,0.263,0.671,0.333,1.132
			c0.073,0.438,0.106,0.99,0.106,1.642c0,1.254-0.158,2.157-0.458,2.702c-0.321,0.551-0.727,0.838-1.24,0.838h-11.882v25.935
			c0,3.198,0.477,5.623,1.416,7.252c0.937,1.644,2.634,2.453,5.075,2.453c0.775,0,1.485-0.064,2.104-0.226
			c0.617-0.161,1.166-0.319,1.645-0.493c0.477-0.178,0.883-0.336,1.236-0.497c0.335-0.157,0.654-0.229,0.919-0.229
			c0.179,0,0.339,0.032,0.495,0.122c0.142,0.091,0.264,0.249,0.353,0.494c0.09,0.251,0.16,0.57,0.23,0.989
			C221.085,466.861,221.119,467.39,221.119,468.006z M301.644,471.476c0,0.28-0.071,0.509-0.209,0.706
			c-0.144,0.178-0.356,0.354-0.672,0.49c-0.301,0.129-0.743,0.232-1.291,0.303c-0.548,0.071-1.238,0.106-2.07,0.106
			c-0.866,0-1.573-0.035-2.122-0.106c-0.548-0.07-0.99-0.174-1.325-0.303c-0.318-0.136-0.551-0.313-0.69-0.49
			c-0.142-0.197-0.21-0.426-0.21-0.706V443.13c0-1.983-0.179-3.782-0.516-5.392c-0.356-1.628-0.903-3.027-1.662-4.211
			c-0.76-1.167-1.716-2.07-2.883-2.689c-1.169-0.619-2.546-0.938-4.137-0.938c-1.964,0-3.944,0.765-5.907,2.286
			c-1.98,1.516-4.171,3.747-6.541,6.682v32.608c0,0.28-0.071,0.509-0.214,0.706c-0.14,0.178-0.371,0.354-0.706,0.49
			c-0.319,0.129-0.761,0.232-1.324,0.303c-0.55,0.071-1.24,0.106-2.07,0.106c-0.815,0-1.486-0.035-2.068-0.106
			c-0.565-0.07-1.028-0.174-1.346-0.303c-0.337-0.136-0.564-0.313-0.685-0.49c-0.127-0.197-0.181-0.426-0.181-0.706V443.13
			c0-1.983-0.193-3.782-0.566-5.392c-0.387-1.628-0.954-3.027-1.715-4.211c-0.761-1.167-1.714-2.07-2.866-2.689
			c-1.164-0.619-2.526-0.938-4.118-0.938c-1.964,0-3.959,0.765-5.959,2.286c-1.999,1.516-4.172,3.747-6.524,6.682v32.608
			c0,0.28-0.071,0.509-0.213,0.706c-0.142,0.178-0.352,0.354-0.672,0.49c-0.317,0.129-0.742,0.232-1.308,0.303
			c-0.548,0.071-1.257,0.106-2.122,0.106c-0.848,0-1.54-0.035-2.087-0.106c-0.566-0.07-1.01-0.174-1.324-0.303
			c-0.335-0.136-0.567-0.313-0.693-0.49c-0.123-0.197-0.176-0.426-0.176-0.706v-46.651c0-0.28,0.053-0.506,0.16-0.706
			c0.108-0.177,0.301-0.352,0.619-0.51c0.319-0.161,0.706-0.271,1.203-0.318c0.476-0.056,1.13-0.068,1.926-0.068
			c0.76,0,1.396,0.013,1.892,0.068c0.514,0.048,0.904,0.157,1.187,0.318c0.266,0.158,0.477,0.333,0.6,0.51
			c0.106,0.2,0.179,0.426,0.179,0.706v6.172c2.615-2.954,5.179-5.11,7.657-6.472c2.456-1.36,4.967-2.048,7.479-2.048
			c1.944,0,3.676,0.227,5.217,0.675c1.537,0.457,2.897,1.076,4.064,1.889c1.187,0.813,2.194,1.787,3.009,2.915
			c0.829,1.116,1.519,2.37,2.086,3.767c1.554-1.699,3.021-3.131,4.421-4.312c1.395-1.187,2.739-2.121,4.03-2.866
			c1.292-0.723,2.546-1.254,3.768-1.573c1.235-0.336,2.457-0.494,3.694-0.494c3.007,0,5.519,0.532,7.551,1.574
			c2.035,1.058,3.678,2.473,4.953,4.227c1.254,1.765,2.138,3.831,2.689,6.204c0.527,2.367,0.792,4.866,0.792,7.497V471.476z
			 M346.507,458.742c0,2.386-0.443,4.508-1.329,6.385c-0.882,1.856-2.12,3.431-3.749,4.701c-1.626,1.276-3.553,2.25-5.799,2.901
			c-2.246,0.655-4.721,0.987-7.41,0.987c-1.663,0-3.236-0.12-4.738-0.384c-1.502-0.252-2.849-0.571-4.05-0.974
			c-1.185-0.388-2.192-0.8-3.022-1.223c-0.831-0.426-1.434-0.815-1.804-1.147c-0.389-0.336-0.67-0.832-0.831-1.451
			c-0.176-0.619-0.264-1.467-0.264-2.548c0-0.657,0.034-1.202,0.105-1.645c0.072-0.457,0.159-0.813,0.247-1.096
			c0.108-0.28,0.268-0.478,0.443-0.6c0.193-0.123,0.406-0.181,0.654-0.181c0.37,0,0.938,0.235,1.68,0.709
			c0.74,0.458,1.662,0.978,2.741,1.522s2.367,1.058,3.855,1.521c1.484,0.478,3.182,0.706,5.109,0.706c1.45,0,2.758-0.161,3.927-0.48
			c1.184-0.3,2.191-0.754,3.057-1.377c0.868-0.603,1.522-1.376,1.999-2.312c0.458-0.941,0.688-2.057,0.688-3.347
			c0-1.31-0.335-2.425-1.007-3.309c-0.67-0.899-1.554-1.696-2.651-2.386c-1.114-0.69-2.352-1.31-3.733-1.838
			c-1.377-0.529-2.792-1.097-4.261-1.68c-1.449-0.604-2.881-1.255-4.279-2c-1.396-0.741-2.633-1.641-3.749-2.725
			c-1.096-1.073-1.978-2.347-2.652-3.837c-0.671-1.483-1.008-3.253-1.008-5.336c0-1.822,0.353-3.573,1.061-5.253
			c0.709-1.68,1.769-3.15,3.184-4.404c1.432-1.255,3.2-2.28,5.32-3.038c2.122-0.764,4.598-1.132,7.445-1.132
			c1.238,0,2.476,0.104,3.73,0.316c1.236,0.216,2.353,0.497,3.361,0.815c1.008,0.316,1.855,0.671,2.563,1.042
			c0.706,0.39,1.256,0.706,1.609,1.009c0.369,0.281,0.601,0.529,0.724,0.723c0.126,0.216,0.214,0.445,0.266,0.709
			c0.054,0.245,0.108,0.564,0.158,0.938c0.055,0.387,0.071,0.849,0.071,1.396c0,0.58-0.017,1.097-0.071,1.519
			c-0.05,0.429-0.142,0.777-0.266,1.045c-0.123,0.28-0.265,0.478-0.438,0.603c-0.179,0.119-0.374,0.175-0.569,0.175
			c-0.316,0-0.76-0.197-1.361-0.581c-0.582-0.374-1.341-0.78-2.278-1.222c-0.94-0.441-2.036-0.849-3.292-1.222
			c-1.255-0.391-2.706-0.581-4.332-0.581c-1.45,0-2.741,0.155-3.837,0.493c-1.114,0.319-2.015,0.78-2.723,1.377
			c-0.708,0.604-1.252,1.31-1.607,2.142c-0.371,0.813-0.551,1.715-0.551,2.669c0,1.345,0.358,2.477,1.046,3.396
			s1.573,1.716,2.688,2.402c1.095,0.693,2.368,1.313,3.782,1.877c1.417,0.548,2.847,1.112,4.316,1.696
			c1.467,0.603,2.917,1.257,4.35,1.982c1.432,0.726,2.705,1.609,3.8,2.635c1.115,1.041,1.999,2.282,2.671,3.728
			C346.168,455.012,346.507,456.746,346.507,458.742z M398.405,446.118c0,1.342-0.337,2.3-1.011,2.88
			c-0.669,0.57-1.449,0.852-2.315,0.852h-30.625c0,2.599,0.264,4.933,0.778,6.996c0.511,2.09,1.379,3.88,2.599,5.359
			c1.203,1.49,2.776,2.621,4.705,3.411c1.942,0.804,4.314,1.206,7.106,1.206c2.21,0,4.193-0.177,5.907-0.545
			c1.733-0.357,3.235-0.764,4.491-1.206c1.256-0.441,2.298-0.848,3.112-1.202c0.811-0.371,1.416-0.545,1.839-0.545
			c0.249,0,0.458,0.052,0.655,0.174c0.174,0.129,0.333,0.3,0.425,0.552c0.104,0.226,0.192,0.561,0.242,0.986
			c0.058,0.441,0.074,0.954,0.074,1.573c0,0.442-0.016,0.839-0.057,1.168c-0.032,0.318-0.067,0.622-0.119,0.867
			c-0.058,0.265-0.141,0.493-0.268,0.709c-0.124,0.193-0.265,0.384-0.458,0.584c-0.193,0.19-0.759,0.493-1.682,0.916
			c-0.934,0.441-2.139,0.848-3.624,1.273c-1.486,0.409-3.204,0.777-5.146,1.1c-1.942,0.332-4.011,0.49-6.223,0.49
			c-3.837,0-7.181-0.526-10.061-1.606c-2.886-1.061-5.306-2.653-7.271-4.756c-1.96-2.122-3.445-4.756-4.437-7.941
			c-1.009-3.167-1.504-6.862-1.504-11.086c0-3.998,0.514-7.604,1.558-10.809c1.026-3.182,2.529-5.903,4.474-8.128
			c1.942-2.231,4.314-3.925,7.073-5.131c2.762-1.187,5.854-1.783,9.267-1.783c3.66,0,6.771,0.587,9.335,1.765
			c2.581,1.17,4.687,2.763,6.35,4.743c1.645,1.979,2.865,4.311,3.64,7c0.78,2.673,1.169,5.533,1.169,8.577V446.118z
			 M389.809,443.591c0.103-4.495-0.882-8.032-2.987-10.596c-2.104-2.561-5.198-3.834-9.319-3.834c-2.123,0-3.977,0.387-5.57,1.184
			c-1.591,0.793-2.918,1.857-3.996,3.183c-1.079,1.309-1.911,2.844-2.494,4.578c-0.582,1.751-0.919,3.573-0.988,5.485H389.809z"/>
		<path fill-rule="evenodd" clip-rule="evenodd" fill="#D71D46" d="M242.546,374.365c1.843-1.264,1.001-0.967,4.279-2.006
			c5.336-1.689,15.323-0.719,31.071-4.727c10.518-2.676,20.968-7.723,29.315-13.137c50.1-32.489,35.686-79.404,98.662-110.63
			c5.483-2.718,8.379-4.291,14.739-6.396c3.097-1.032,4.848-1.674,7.687-2.345l8.266,0.158c14.516-6.011,28.846-8.025,46.582-9.067
			c-25.222-14.119-64.09-10.366-89.168,2.538c-67.606,34.791-47.844,84.373-106.698,115.579
			c-40.497,21.481-70.765,7.755-91.605,8.106c0.018,0.006,17.607,10.398,21.534,12.288
			C225.97,368.936,233.159,371.399,242.546,374.365z"/>
		<path fill-rule="evenodd" clip-rule="evenodd" fill="#18386B" d="M327.591,242.78c-2.997-3.289-3.772-11.421-5.35-15.896
			c-5.942-16.874-15.803-27.102-29.34-37.591c-39.287-30.426-122.478-21.397-123.192-99.441
			c-0.123-13.232,1.369-18.892,4.746-30.216c0.213-0.712,0.903-2.966,0.966-3.511l-0.237-2.944c-0.022-0.158-0.127-0.626-0.29-0.89
			c-38.866,49.449-14.81,107.544,33.085,128.699c33.503,14.804,74.81,15.109,102.622,47.764
			c8.217,9.647,10.987,21.774,14.004,37.022L327.591,242.78z"/>
		<path fill-rule="evenodd" clip-rule="evenodd" fill="#893293" d="M251.841,140.753l33.02,10.005
			c-4.994-45.154,9.479-85.189,36.012-117.662c3.669-4.485,19.799-20.407,28.322-22.448
			C302.656,10.886,243.996,67.281,251.841,140.753z"/>
		<path fill-rule="evenodd" clip-rule="evenodd" fill="#006BB6" d="M174.894,52.291c0.163,0.264,0.268,0.731,0.29,0.89l0.237,2.944
			c-0.063,0.545-0.753,2.799-0.966,3.511c-3.377,11.324-4.869,16.983-4.746,30.216c0.714,78.044,83.906,69.016,123.192,99.441
			c13.538,10.489,23.398,20.717,29.34,37.591c1.577,4.476,2.353,12.607,5.35,15.896c1.965-60.059-33.71-81.088-82.923-95.127
			c-57.577-16.429-77.994-54.87-55.503-109.019C181.15,41.708,182.097,43.355,174.894,52.291z"/>
		<path fill-rule="evenodd" clip-rule="evenodd" fill="#95181C" d="M242.546,374.365c29.042,4.201,46.88,5.107,72.056-7.532
			c62.172-31.219,57.251-108.834,121.962-131.55l-8.266-0.158c-2.839,0.671-4.59,1.313-7.687,2.345
			c-6.36,2.105-9.256,3.679-14.739,6.396c-62.976,31.226-48.563,78.141-98.662,110.63c-8.347,5.414-18.797,10.461-29.315,13.137
			c-15.748,4.008-25.734,3.037-31.071,4.727C243.548,373.398,244.389,373.102,242.546,374.365z"/>
		<path fill-rule="evenodd" clip-rule="evenodd" fill="#00C2F3" d="M211.237,261.979l-5.29-2.142
			c-0.585-0.161-3.447-0.6-4.301-0.748c-40.599-7.106-74.732-34.688-84.127-77.431c-14.454-65.785,33.079-125.15,37.284-124.869
			c4.425-2.493,12.386-14.065,14.856-17.605c-37.945,20.617-72.7,77.886-68.322,130.776
			C106.076,227.245,150.644,262.984,211.237,261.979z"/>
		<path fill-rule="evenodd" clip-rule="evenodd" fill="#0094D3" d="M211.237,261.979l13.325-0.591
			c-17.796-7.348-31.271-3.585-55.41-25.15c-42.374-37.835-48.773-99.234-27.937-152.356c3.948-10.064,11.024-18.506,13.588-27.092
			c-4.205-0.281-51.738,59.084-37.284,124.869c9.395,42.742,43.528,70.324,84.127,77.431c0.854,0.148,3.716,0.587,4.301,0.748
			L211.237,261.979z"/>
		<path fill-rule="evenodd" clip-rule="evenodd" fill="#2C073F" d="M316.606,163.149l-16.897-4.872
			c5.846,5.305,6.136,5.42,11.639,10.925c2.512,2.505,3.305,2.763,5.739,5.672c2.033,2.431,2.135,3.243,4.976,6.284
			c6.078-1.768,11.645-5.224,17.752-8.181c6.386-3.096,14.606-4.756,20.074-7.961c-15.838-13.691-25.637-26.15-31.211-54.032
			c-5.567-27.807-3.199-47.408,4.711-72.465C314.577,51.021,306.074,125.27,316.606,163.149z"/>
		<path fill-rule="evenodd" clip-rule="evenodd" fill="#00AAA0" d="M32.309,303.957c-1.367-1.277-5.5-1.142,9.366-7.465
			c5.486-2.334,9.884-3.524,16.093-4.585c36.368-6.227,84.162,17.548,89.405,26.772c2.296,4.03,2.368,0.271,0.129,3.554
			c3.508,4.323,6.057,4.801,10.839,7.974c-7.265-14.371-23.127-29.726-40.59-37.436c-24.235-10.695-37.442-10.344-65.003-8.677
			c-9.678-25.393,12.058-41.425,27.188-49.946c-24.965-0.71-61.492,33.46-53.266,71.753L32.309,303.957z"/>
		<path fill-rule="evenodd" clip-rule="evenodd" fill="#A1CD3A" d="M330.083,200.511c13.069-7.716,38.292-18.543,56.247-21.978
			c11.589-2.215,23.771-3.373,35.264-0.381c8.899,2.318,23.085,9.032,22.242,15.849l7.039,1.78
			c-4.639-27.012-33.842-34.212-59.568-30.104c-24.021,3.844-47.975,15.029-65.546,25.653L330.083,200.511z"/>
		<path fill-rule="evenodd" clip-rule="evenodd" fill="#4F9A44" d="M330.083,200.511l4.513,15.542
			c4.566-2.273,7.005-5.194,10.886-7.987c4.098-2.943,6.961-4.646,11.031-6.99c14.581-8.402,38.893-18.208,56.735-14.529
			c17.068,3.512,3.758,10.631,30.588,7.455c0.843-6.816-13.343-13.53-22.242-15.849c-11.493-2.992-23.675-1.834-35.264,0.381
			C368.375,181.968,343.152,192.795,330.083,200.511z"/>
		<path fill-rule="evenodd" clip-rule="evenodd" fill="#00584C" d="M32.309,303.957c25.267-2.47,38.213-6.098,65.17-1.151
			c23.134,4.24,32.691,10.938,49.822,19.428c2.239-3.283,2.167,0.477-0.129-3.554c-5.243-9.225-53.037-32.999-89.405-26.772
			c-6.208,1.061-10.606,2.251-16.093,4.585C26.809,302.815,30.942,302.68,32.309,303.957z"/>
		<path fill-rule="evenodd" clip-rule="evenodd" fill="#F58120" d="M394.231,218.478c45.108-10.334,52.326-11.398,95.407,3.005
			c-11.195-13.562-23.854-20.497-44.829-21.475C421.583,198.931,405.027,206.866,394.231,218.478z"/>
	</g>
</g>
<g id="cdr_x5F_layer3">
</g>
<g id="cdr_x5F_layer4">
</g>
<g id="MasterLayer_1">
</g>
</svg>
